<?xml version="1.0" standalone="no"?>
<!DOCTYPE svg PUBLIC "-//W3C//DTD SVG 20010904//EN"
 "http://www.w3.org/TR/2001/REC-SVG-20010904/DTD/svg10.dtd">
<svg version="1.0" xmlns="http://www.w3.org/2000/svg"
 width="500.000000pt" height="500.000000pt" viewBox="0 0 500.000000 500.000000"
 preserveAspectRatio="xMidYMid meet">

<g transform="translate(0.000000,500.000000) scale(0.100000,-0.100000)"
fill="#000000" stroke="none">
<path d="M2061 4479 c-14 -5 -30 -8 -37 -5 -7 3 -25 -4 -39 -16 -35 -28 -30
-58 13 -73 19 -6 38 -18 43 -28 6 -9 21 -17 35 -17 33 0 50 -37 36 -79 -10
-29 -10 -31 15 -31 60 0 113 60 113 127 0 87 -99 154 -179 122z"/>
<path d="M965 4473 c-37 -10 -55 -34 -55 -75 0 -51 21 -100 55 -126 32 -26 65
-28 104 -7 34 17 49 54 49 116 0 40 -4 50 -30 69 -31 22 -86 33 -123 23z"/>
<path d="M942 4210 c-7 -11 -33 -30 -59 -44 -73 -36 -88 -58 -87 -122 1 -29
11 -93 22 -141 29 -127 42 -192 42 -214 0 -18 -9 -19 -160 -19 -88 0 -160 -2
-160 -5 0 -4 7 -19 15 -35 l16 -30 150 0 c120 0 149 -3 142 -12 -18 -23 -22
-58 -8 -58 8 0 16 -18 20 -42 4 -24 13 -50 21 -59 12 -14 11 -18 -6 -34 -24
-22 -25 -43 -4 -73 12 -18 25 -22 70 -22 l54 0 0 -36 0 -37 59 6 c48 4 214 50
230 63 2 2 -11 21 -29 44 -18 23 -31 42 -29 44 2 1 35 9 72 18 l68 16 26 -41
c14 -22 32 -56 39 -74 8 -18 20 -33 27 -33 21 0 147 -65 231 -118 67 -44 81
-49 101 -40 l24 11 -50 100 c-36 70 -46 98 -34 93 9 -3 41 -9 72 -12 44 -6 57
-12 65 -29 12 -27 48 -45 88 -45 l30 0 0 -101 c0 -88 2 -100 16 -95 9 3 24 6
35 6 17 0 19 8 19 94 l0 94 54 4 c30 3 62 10 70 17 22 19 20 64 -4 86 -19 18
-19 18 11 53 45 51 32 57 -134 59 -174 2 -284 19 -299 47 -9 17 -18 18 -87 13
-43 -3 -90 -11 -105 -16 -25 -10 -28 -9 -41 23 -17 41 -67 63 -171 75 -51 6 1
9 206 12 186 2 227 4 128 6 l-148 4 0 24 0 25 154 0 c104 0 156 -4 158 -11 2
-7 10 -4 18 6 14 17 -3 18 -383 11 l-398 -7 3 98 c3 92 4 98 25 101 15 2 20 8
17 20 -5 15 -4 15 9 0 12 -15 32 -18 136 -18 101 0 121 -2 121 -15 0 -23 62
-19 83 5 9 11 28 20 42 20 14 0 25 4 25 10 0 12 -45 24 -58 16 -8 -5 -113 13
-239 39 -13 3 -20 11 -17 18 4 12 -82 129 -164 222 -30 34 -46 43 -82 48 -38
5 -48 3 -58 -13z m118 -575 l0 -25 -155 0 -155 0 0 25 0 25 155 0 155 0 0 -25z"/>
<path d="M2250 3635 l0 -35 70 0 c39 0 70 3 70 6 0 3 -8 19 -17 35 -16 26 -22
29 -70 29 l-53 0 0 -35z"/>
<path d="M3120 3342 c-35 -36 -35 -38 -26 -89 10 -57 31 -70 54 -33 14 22 47
27 56 8 5 -10 8 -10 12 1 4 8 18 25 31 37 20 18 28 21 43 12 9 -6 25 -8 35 -5
16 7 16 9 -2 40 -23 40 -75 67 -128 67 -33 -1 -46 -7 -75 -38z"/>
<path d="M4010 3243 c-34 -33 -49 -63 -50 -94 0 -15 -9 -38 -21 -53 -13 -17
-18 -33 -14 -46 8 -26 -10 -49 -52 -67 -20 -8 -33 -20 -33 -31 0 -17 86 -111
92 -101 10 16 50 100 62 130 10 26 21 38 42 42 16 4 38 9 49 12 16 5 28 -4 52
-37 58 -80 103 -118 103 -88 0 6 -11 15 -25 20 -29 11 -30 14 -11 69 14 39 14
42 -10 71 -16 18 -25 40 -24 57 4 62 0 72 -46 108 -54 41 -79 43 -114 8z"/>
<path d="M3670 3030 c33 -26 52 -25 21 0 -13 11 -28 20 -35 20 -6 0 0 -9 14
-20z"/>
<path d="M3788 2679 c-42 -24 4 -68 56 -55 19 5 26 13 26 31 0 14 -6 25 -12
25 -7 0 -22 2 -33 5 -11 3 -28 0 -37 -6z"/>
<path d="M3921 2581 c-16 -30 -13 -126 9 -273 11 -73 33 -218 49 -322 15 -103
33 -191 38 -195 6 -3 12 -18 15 -34 4 -23 -1 -32 -31 -56 -20 -16 -54 -32 -74
-36 -28 -5 -37 -12 -35 -24 3 -13 21 -16 109 -19 95 -2 107 -1 111 15 3 10 1
27 -3 38 -4 11 -8 41 -8 68 -1 37 2 47 15 47 14 0 16 9 12 65 -3 36 -5 65 -4
65 2 0 17 -21 35 -46 18 -25 39 -43 45 -41 7 3 21 -11 31 -30 19 -35 19 -36
-1 -72 -12 -20 -35 -45 -52 -56 -32 -21 -40 -39 -21 -51 6 -3 53 11 105 32
100 40 113 55 76 92 -26 26 -62 115 -52 127 6 7 -26 73 -85 176 l-94 166 -2
89 c-1 70 4 102 21 149 12 33 25 74 27 92 6 38 4 39 -134 48 -85 5 -93 4 -102
-14z"/>
<path d="M3310 2580 c-8 -5 -57 -26 -107 -47 -87 -34 -94 -39 -103 -72 -5 -20
-10 -41 -10 -47 0 -6 -67 -124 -150 -263 -82 -139 -150 -255 -150 -256 0 -5
91 -55 100 -55 4 0 56 66 116 147 60 81 115 154 122 162 11 13 12 -16 7 -171
l-6 -188 60 0 c53 0 59 2 64 23 3 12 26 171 53 352 34 241 45 343 40 378 -8
49 -11 53 -36 37z"/>
<path d="M1302 1930 c-12 -12 -22 -27 -22 -35 0 -7 -9 -16 -20 -20 -55 -17
-79 -105 -39 -141 22 -19 22 -19 10 3 -25 49 -16 58 54 58 60 0 65 -2 65 -21
0 -12 -7 -27 -15 -34 -9 -7 -13 -15 -10 -18 3 -3 14 3 25 13 26 24 26 75 -1
109 -26 33 -5 36 35 5 29 -23 33 -53 14 -105 -17 -47 1 -84 40 -84 31 0 62 27
62 54 0 9 -11 28 -25 42 -14 14 -25 35 -25 47 0 46 -22 97 -51 121 -37 31 -68
33 -97 6z"/>
<path d="M811 1780 c-1 -19 -4 -45 -7 -57 -5 -16 -2 -23 9 -23 11 0 14 10 10
48 -6 62 -11 75 -12 32z"/>
<path d="M2741 1784 c-12 -15 -21 -32 -21 -38 0 -18 203 -121 223 -113 25 10
21 31 -11 49 -16 9 -38 39 -51 67 -23 47 -25 49 -57 44 -19 -3 -40 -1 -48 6
-11 9 -18 6 -35 -15z"/>
<path d="M3208 1719 c-10 -10 -30 -19 -44 -19 -23 0 -25 -3 -22 -37 l3 -38
125 0 c118 0 125 1 125 20 0 14 -10 22 -40 28 -22 6 -58 23 -79 38 -46 33 -45
33 -68 8z"/>
<path d="M1121 1337 c-48 -148 -81 -289 -81 -348 0 -23 6 -32 27 -40 14 -5 29
-6 33 -2 4 4 31 80 60 168 29 88 56 163 59 168 4 4 40 -74 80 -173 41 -99 77
-180 80 -180 4 0 16 6 27 14 19 14 19 16 -4 168 -23 157 -56 312 -72 338 -7
12 -12 12 -29 -4 -20 -18 -51 -16 -51 4 0 5 -6 10 -12 10 -7 0 -25 7 -40 14
l-27 14 -50 -151z"/>
<path d="M1022 898 c-21 -21 -13 -28 33 -28 38 0 45 3 45 20 0 16 -7 20 -33
20 -18 0 -38 -5 -45 -12z"/>
<path d="M1338 899 c-31 -17 -20 -29 27 -29 38 0 45 3 45 20 0 15 -7 20 -27
20 -16 0 -36 -5 -45 -11z"/>
</g>
</svg>
