<svg version="1.1" id="Layer_1" xmlns="http://www.w3.org/2000/svg" xmlns:xlink="http://www.w3.org/1999/xlink" x="0px" y="0px"
	 width="100%" viewBox="0 0 500 500" enable-background="new 0 0 500 500" xml:space="preserve">
<path fill="#FFFFFF" opacity="1.000000" stroke="none" 
	d="
M291.000000,501.000000 
	C195.333359,501.000000 100.166679,500.976379 5.000188,501.095673 
	C1.576176,501.099945 0.903036,500.423828 0.905301,497.000000 
	C1.013778,333.000092 1.013756,169.000137 0.905337,5.000250 
	C0.903074,1.576957 1.575784,0.903021 4.999873,0.905286 
	C168.999756,1.013775 332.999725,1.013761 496.999634,0.905354 
	C500.422668,0.903091 501.096985,1.575424 501.094727,4.999754 
	C500.986206,168.999634 500.986237,332.999603 501.094604,496.999512 
	C501.096893,500.422272 500.425720,501.102997 497.000244,501.096527 
	C428.500336,500.967285 360.000153,501.000000 291.000000,501.000000 
z"/>
<path fill="#F1F1F1" opacity="1.000000" stroke="none" 
	d="
M102.172928,53.099922 
	C106.273590,49.084389 111.395668,50.879387 115.954048,51.309078 
	C139.147827,53.495411 153.854797,67.680725 164.461472,87.058044 
	C168.525650,94.482895 173.574112,101.260429 177.908295,108.906563 
	C177.920029,110.665100 176.819672,111.276688 175.730087,111.517548 
	C169.788391,112.830963 163.968307,114.834808 157.398438,114.689857 
	C155.017441,112.560287 152.677841,112.202003 149.851837,112.033806 
	C141.921524,111.561821 134.108978,110.025368 126.132233,107.532074 
	C120.628822,97.658577 113.045372,89.889153 105.837860,81.848465 
	C103.441635,79.175224 98.934181,78.804558 96.260208,80.946220 
	C93.116714,83.463928 89.714737,85.542046 86.250877,87.515312 
	C81.985245,89.945312 80.955055,93.579689 81.582603,98.119347 
	C82.815361,107.036972 85.568306,115.635735 86.895348,124.547752 
	C88.501701,135.335510 88.716621,135.455109 77.624489,135.279404 
	C70.009003,135.158783 62.334320,136.342010 54.419090,134.300018 
	C53.174191,127.106537 50.665855,120.389397 50.943558,113.136848 
	C51.976501,86.159943 64.159966,66.583771 88.819054,55.094181 
	C90.109573,54.492882 91.447533,53.382851 93.053589,55.217411 
	C94.029762,59.667679 92.332817,64.030083 94.614090,68.344170 
	C97.384521,73.929420 100.557289,75.656036 105.421471,74.475121 
	C109.911270,73.385086 111.682281,70.134323 111.696503,62.581264 
	C111.445564,56.257729 106.138588,55.633125 102.172928,53.099922 
z"/>
<path fill="#EFEFEF" opacity="1.000000" stroke="none" 
	d="
M245.113739,422.705750 
	C239.174240,430.099182 233.321350,437.117523 227.544556,444.197968 
	C226.842575,445.058411 226.550491,446.253265 226.029968,447.651825 
	C222.693924,448.294952 221.019073,445.579346 218.963318,443.892609 
	C198.778488,427.330566 178.132065,411.342896 157.959869,394.766815 
	C155.123413,392.436005 152.303238,390.085052 150.620010,386.721100 
	C147.189789,379.865692 148.703873,371.719055 154.317841,366.596039 
	C159.603363,361.772766 168.835968,361.142578 175.225769,365.497131 
	C181.963181,370.088593 188.105392,375.479187 194.449142,380.589539 
	C210.117249,393.211395 225.737427,405.892456 241.488434,418.411377 
	C242.900925,419.533997 244.464523,420.578094 245.113739,422.705750 
z"/>
<path fill="#313043" opacity="1.000000" stroke="none" 
	d="
M180.334412,190.943817 
	C172.819824,186.779083 165.728912,182.476624 158.462860,178.493698 
	C154.706909,176.434875 150.640106,174.943130 146.367767,173.093231 
	C143.854034,170.418762 142.898758,167.130066 140.927307,164.428741 
	C138.817947,161.538467 130.793579,160.668854 128.399963,163.162338 
	C127.444054,164.158112 128.175552,164.949539 128.660873,165.803482 
	C129.699020,167.630173 131.764267,168.956650 131.215164,171.726715 
	C125.610344,172.966095 120.611038,175.201706 115.400116,176.735794 
	C111.431328,177.904205 107.341064,178.534012 102.726585,177.897400 
	C100.224640,176.549622 100.987732,174.225037 100.250198,172.042725 
	C98.301659,167.283844 96.474129,162.861664 91.416992,160.441406 
	C87.661026,157.253113 86.748871,153.479340 87.857109,148.842163 
	C91.151283,147.012817 94.259079,147.801315 97.375244,148.092590 
	C104.288567,148.738770 111.189171,149.130615 118.091446,147.689209 
	C121.236397,147.032455 123.172134,145.552689 123.789017,141.938080 
	C126.767487,140.002777 129.768600,140.857315 133.070374,140.605652 
	C137.506439,140.362457 141.415817,141.097000 145.279526,141.990631 
	C148.512527,142.738327 152.190689,143.489517 153.913223,146.413696 
	C156.315033,150.491058 159.390457,150.446518 163.205200,149.573441 
	C167.251862,148.647263 171.367233,148.220779 175.898102,149.030151 
	C178.702469,150.955658 180.323151,154.349762 184.652588,153.239227 
	C190.675873,154.695969 196.231812,155.510849 202.182693,154.817245 
	C209.210052,153.998184 216.390701,154.209824 223.575989,156.920639 
	C225.962265,161.566483 221.560287,162.851654 219.662720,165.772125 
	C213.858185,172.159149 206.228394,172.367935 198.911819,173.296875 
	C196.147644,173.647812 193.309891,173.433914 190.124573,173.241837 
	C187.322571,172.657684 184.887512,172.168945 182.407074,172.052460 
	C180.846985,171.979172 178.857773,170.520126 177.830490,172.237198 
	C176.949951,173.708984 178.593536,175.287903 179.264603,176.752258 
	C180.572479,179.606216 182.068558,182.370911 183.417221,185.207199 
	C184.864517,188.250946 184.326950,190.329575 180.334412,190.943817 
z"/>
<path fill="#FCCC06" opacity="1.000000" stroke="none" 
	d="
M224.590363,158.037766 
	C215.821945,156.014267 207.365570,155.040054 198.753952,156.426605 
	C193.687271,157.242386 188.969467,155.794510 183.913086,153.965103 
	C182.871933,149.554886 185.873123,146.496140 187.206482,142.879852 
	C188.611206,139.070084 191.618103,135.888229 191.639923,131.153748 
	C191.880905,126.340652 192.715042,122.005310 193.802094,117.336182 
	C194.387024,114.122673 198.738724,113.514954 198.158508,110.341637 
	C197.686722,107.761322 194.793182,106.465027 193.595139,104.123177 
	C193.294495,103.535484 193.804047,104.216522 193.448334,103.308136 
	C194.172241,95.957611 196.997467,90.259781 203.394196,86.730324 
	C204.529282,86.104034 205.700150,85.646904 206.584488,84.481178 
	C210.790024,78.937515 216.483612,79.176590 220.117142,85.079262 
	C221.971573,88.091789 224.266556,90.659760 226.722137,93.162750 
	C231.532486,98.066002 233.250626,103.860641 231.243774,110.565468 
	C229.617065,116.000275 228.664398,121.560974 228.077530,127.597351 
	C228.625610,130.280441 225.760086,131.878998 226.947815,134.618195 
	C227.321793,136.711594 227.381470,138.449951 226.718140,140.516815 
	C224.793930,142.814636 226.029831,144.784607 226.415176,146.824097 
	C227.145126,150.687576 228.884048,154.761017 224.590363,158.037766 
z"/>
<path fill="#323144" opacity="1.000000" stroke="none" 
	d="
M316.383545,322.415924 
	C312.891418,322.012390 313.965576,319.667084 314.014435,318.111328 
	C314.306213,308.820496 314.725372,299.533783 315.082703,290.244934 
	C315.136505,288.846405 315.090210,287.444092 315.090210,284.552307 
	C307.169830,295.093781 300.170807,304.444336 293.117767,313.753998 
	C292.171417,315.003143 291.732513,316.847595 289.387390,317.080200 
	C286.140381,316.695557 283.679993,315.425476 281.350433,313.166748 
	C278.933441,311.093964 280.796814,309.683502 281.638031,308.261230 
	C289.390900,295.153381 297.029327,281.973999 305.027130,269.016693 
	C308.313721,263.692108 310.530823,258.134888 311.544006,251.614075 
	C311.831940,250.137589 312.610291,249.471588 313.554993,249.125580 
	C319.813904,246.833054 325.861053,244.018250 332.090820,241.657074 
	C333.202850,241.235611 334.343201,241.030807 335.615540,242.030548 
	C336.392853,266.184753 330.107666,289.165802 327.448273,312.574188 
	C327.096497,315.670898 327.172943,318.913574 325.357666,321.985657 
	C322.366516,323.916412 319.601349,323.752625 316.383545,322.415924 
z"/>
<path fill="#423F58" opacity="1.000000" stroke="none" 
	d="
M124.058105,141.664124 
	C126.280792,146.791977 123.418510,148.218246 119.530334,148.910294 
	C111.672905,150.308823 103.812897,150.605103 95.897743,149.214600 
	C93.639572,148.817886 91.271080,149.049194 88.502121,148.992050 
	C83.896240,148.098846 83.714752,147.447647 86.255859,141.379242 
	C88.488640,138.410660 91.413345,138.734436 94.217857,138.568481 
	C97.738609,138.360138 101.372810,139.220901 105.446762,137.554977 
	C102.746452,136.006332 100.402847,136.479813 98.180473,136.445724 
	C93.368576,136.371887 88.537895,136.670593 83.746986,136.345642 
	C79.837791,136.080490 77.408859,137.402069 75.942520,141.403595 
	C69.983978,142.989609 64.373146,143.150833 58.386219,141.291183 
	C56.751125,138.927322 55.503139,136.845764 54.157745,134.441864 
	C63.557938,134.078247 73.062943,133.801773 82.549835,134.100632 
	C86.920044,134.238297 87.445625,132.838150 86.576614,129.006378 
	C84.375595,119.301353 82.375290,109.544235 80.581772,99.755371 
	C79.068024,91.493484 80.306671,89.395744 87.471878,85.142014 
	C90.538261,83.321609 94.241768,82.441208 96.171936,78.814430 
	C96.905716,77.435669 105.739182,78.766808 106.831200,80.119171 
	C112.347580,86.950745 117.896683,93.756371 123.354118,100.634727 
	C124.631775,102.245033 126.707001,103.608597 125.817307,106.599731 
	C125.268929,109.892403 124.011482,112.492897 122.236870,115.238663 
	C121.059570,115.975052 120.088379,116.044464 118.735184,115.931160 
	C117.234970,115.626854 116.093307,115.385284 114.666328,116.164886 
	C112.326195,117.554817 112.448639,119.592140 112.408493,121.538040 
	C112.324547,125.607933 112.490570,129.680725 112.259567,134.114456 
	C111.712479,136.961380 113.085770,137.593796 115.217079,137.686539 
	C117.783646,137.798203 120.447250,137.254425 123.124374,138.904449 
	C123.835243,139.798553 124.056786,140.508667 124.058105,141.664124 
z"/>
<path fill="#E6E6E5" opacity="1.000000" stroke="none" 
	d="
M335.979614,242.066040 
	C332.251404,242.071030 329.616089,244.400604 326.574158,245.488220 
	C321.747070,247.214111 316.992126,249.141830 311.880676,251.094498 
	C308.106750,249.409210 307.256897,246.803360 309.286652,243.455246 
	C310.713745,241.101181 311.342682,238.996262 308.622437,237.062897 
	C307.511139,236.273056 306.980682,235.033264 307.016968,233.592834 
	C307.279572,223.162170 305.498383,212.854462 303.690643,202.725067 
	C302.277100,194.804306 306.283691,190.351532 310.694580,185.135345 
	C313.056885,183.607330 314.638885,185.261475 316.711792,185.979858 
	C318.432770,186.964249 320.005310,187.473969 321.606659,188.653442 
	C325.115723,195.075867 326.658936,201.895660 328.906067,208.453049 
	C329.838562,211.174194 330.810333,211.874649 333.426147,210.343536 
	C337.270660,208.093216 341.287964,206.138153 345.586975,204.020569 
	C347.845856,203.288239 349.267609,204.341080 350.962341,205.573975 
	C351.192627,210.240265 348.517242,213.448700 346.083618,217.133392 
	C343.504974,219.226273 342.835938,221.626648 343.237061,224.730606 
	C337.184570,228.092651 334.674347,232.401459 337.757568,238.929153 
	C338.374420,240.235153 336.898254,240.894501 335.979614,242.066040 
z"/>
<path fill="#323144" opacity="1.000000" stroke="none" 
	d="
M404.010681,322.607941 
	C400.987793,321.978546 401.359497,319.812683 401.100342,318.116730 
	C398.123566,298.633759 395.066162,279.161591 392.325806,259.645081 
	C391.661652,254.914871 392.077850,250.032990 391.971436,244.773941 
	C391.929626,241.757004 393.432709,239.842880 395.726257,240.020584 
	C402.534821,240.548065 409.528107,239.492676 416.493805,242.347870 
	C418.056213,246.074692 416.433105,249.047440 415.243378,252.118271 
	C410.427673,264.548553 409.545197,276.654419 417.276001,288.518494 
	C421.689911,295.292328 425.425476,302.513000 429.339020,309.602844 
	C429.914917,310.646149 431.921112,311.730560 429.772400,313.587158 
	C428.214325,316.154053 425.782959,316.794373 423.255615,317.781799 
	C419.389709,318.728333 418.601715,315.652863 416.954681,313.773590 
	C416.041992,312.732239 415.439850,310.475952 413.775360,311.291077 
	C412.135315,312.094208 412.756439,314.296906 413.339539,315.685211 
	C414.093994,317.481445 413.938904,319.249817 413.942596,321.039459 
	C413.944824,322.130585 412.936676,322.131836 411.713928,322.272980 
	C409.101532,323.544983 406.835022,323.801300 404.010681,322.607941 
z"/>
<path fill="#FCCC08" opacity="1.000000" stroke="none" 
	d="
M416.843170,242.236435 
	C410.662140,241.954376 404.373444,242.484512 398.218750,241.115692 
	C395.731750,240.562561 393.645477,241.299103 392.257568,244.099045 
	C388.429504,242.736649 384.913422,241.146255 381.176636,239.290894 
	C381.632904,238.170349 382.585052,238.051041 383.924438,238.083313 
	C385.390198,238.352707 386.353546,238.958939 387.376495,239.424103 
	C388.271729,239.831207 388.534302,239.542603 388.121643,238.326080 
	C387.731934,236.608597 387.723358,235.213791 388.297729,233.509415 
	C392.875977,229.548904 392.748566,227.322937 388.235504,225.342255 
	C385.697815,224.228531 384.568665,224.915665 383.978516,227.437943 
	C383.640350,228.883194 383.303314,230.359283 382.269592,231.933273 
	C381.202881,232.384735 380.521973,232.121536 379.687744,231.282745 
	C378.453308,227.685104 380.306824,224.931107 381.166565,222.019455 
	C382.135529,218.738068 383.358337,215.531479 384.087891,211.778534 
	C384.422729,210.941269 384.715302,210.530228 385.400330,209.977936 
	C387.601044,209.344009 388.912384,210.559189 390.060394,211.632095 
	C392.875092,214.262665 394.075806,212.963959 395.913116,210.249527 
	C398.424713,206.538818 398.228271,201.544983 402.206146,198.330566 
	C405.269470,197.497757 407.981171,196.690735 411.226807,196.939911 
	C415.448517,198.923187 417.204620,202.723785 419.702454,206.279648 
	C419.758270,206.654648 419.819580,206.661667 419.826996,206.631714 
	C420.062805,206.949005 420.312408,207.280304 420.830444,207.784912 
	C421.077728,207.974182 421.006134,207.984116 421.024719,207.953125 
	C421.392120,208.353165 421.567108,208.845963 421.401672,209.765976 
	C420.685852,216.924332 420.118927,223.715744 419.595032,230.510468 
	C419.291199,234.451965 418.884338,238.356842 416.843170,242.236435 
z"/>
<path fill="#353446" opacity="1.000000" stroke="none" 
	d="
M107.269424,406.381317 
	C103.564133,403.376190 105.077301,399.718811 105.493561,396.491730 
	C107.019958,384.658264 110.705208,373.359802 114.598129,362.134247 
	C115.678062,359.020172 116.841003,355.934937 118.016121,352.476440 
	C121.060760,350.448608 122.744469,353.656219 125.499680,354.192383 
	C127.548859,356.262543 129.403214,356.641144 131.746902,354.640503 
	C132.537735,354.427368 132.995209,354.479553 133.618683,354.948242 
	C139.532333,370.964386 141.235031,387.457855 143.257446,403.890320 
	C143.386307,404.937317 143.309280,405.871643 142.221893,406.863159 
	C138.182983,410.482819 136.668991,407.333344 135.440125,404.566681 
	C131.121262,394.843445 127.414436,384.868500 123.337234,374.714844 
	C120.372711,383.398804 117.530632,391.999817 114.638809,400.584076 
	C113.901451,402.772919 113.461235,405.113159 111.511353,407.140015 
	C109.829231,407.928223 108.639473,407.586456 107.269424,406.381317 
z"/>
<path fill="#F1F1F1" opacity="1.000000" stroke="none" 
	d="
M224.110809,158.351776 
	C227.836746,153.690262 225.398590,149.269821 224.543900,144.810104 
	C224.314209,143.611694 221.862549,141.939743 225.127319,140.822418 
	C229.955032,138.835678 234.528290,138.914307 239.535889,140.662781 
	C246.876999,152.733734 245.077682,164.349304 238.136673,175.069946 
	C231.270004,185.675781 220.838882,192.085022 208.513336,196.002319 
	C205.252487,190.696411 206.708771,185.079880 207.124191,179.571518 
	C207.268829,177.653793 209.056519,177.054367 210.797607,176.797531 
	C212.278717,176.579010 213.786194,176.689697 215.262619,176.474380 
	C220.426834,175.721344 221.940857,172.795685 219.593643,168.126724 
	C219.220963,167.385406 218.789429,166.677139 218.603210,165.440308 
	C220.391586,162.912598 222.198196,160.796188 224.110809,158.351776 
z"/>
<path fill="#F2F1ED" opacity="1.000000" stroke="none" 
	d="
M385.188721,210.836212 
	C385.659271,216.263962 382.417084,220.397552 381.446350,225.114670 
	C381.039246,227.092880 379.235321,228.882614 380.875000,231.436005 
	C380.468689,233.355972 379.306946,234.568893 377.389587,235.501526 
	C368.608368,232.617676 360.743561,228.467270 352.757202,223.862823 
	C352.566132,220.394760 351.230621,218.183914 347.854614,216.998138 
	C349.994812,209.330414 353.113068,202.318726 357.059082,195.671631 
	C357.873047,194.300522 358.786835,193.266388 360.882294,193.822571 
	C362.384369,194.403046 363.566864,194.768936 365.115051,195.226044 
	C367.977539,197.483917 370.231934,199.951477 373.474243,201.720062 
	C376.265686,203.768997 378.887177,205.510361 381.251678,207.549728 
	C382.409241,208.548096 383.216675,208.345886 384.588013,207.546738 
	C384.985413,207.582565 385.048279,207.783936 385.162384,208.299500 
	C385.273041,209.254349 385.257965,209.899139 385.188721,210.836212 
z"/>
<path fill="#F1F1F1" opacity="1.000000" stroke="none" 
	d="
M58.036037,141.366089 
	C63.710373,140.963531 69.421638,140.918182 75.599663,140.949860 
	C79.717445,138.884018 83.358055,138.693130 87.007675,141.569794 
	C87.216400,144.228485 82.796356,146.720963 87.766479,148.787750 
	C88.878082,152.547485 88.085892,156.666428 91.728050,159.611893 
	C91.559135,161.104660 90.616730,161.896866 90.172379,162.950073 
	C88.778404,166.254044 90.117233,168.771942 93.683807,169.552277 
	C95.911827,170.039749 98.316422,169.298111 100.730194,170.706207 
	C103.216858,172.598267 101.810593,175.004898 102.261093,177.461700 
	C81.374771,173.376343 67.488243,160.283890 58.036037,141.366089 
z"/>
<path fill="#D0D0CF" opacity="1.000000" stroke="none" 
	d="
M245.337341,423.023529 
	C222.018860,404.550873 199.057297,386.010254 176.033722,367.546997 
	C169.332855,362.173401 159.383102,362.616882 154.253723,368.284515 
	C148.066116,375.121460 148.204926,384.544342 155.530182,390.884796 
	C166.685684,400.540527 178.356903,409.600952 189.821823,418.898529 
	C201.673035,428.509430 213.539413,438.101624 225.695328,447.856262 
	C226.172897,448.624237 226.354294,449.237976 226.784088,450.283203 
	C225.948929,450.757294 224.865372,450.799896 223.378403,450.780304 
	C222.791092,450.576202 222.607193,450.434357 222.136826,450.092926 
	C208.006485,438.917542 194.717010,427.245880 180.119171,416.644592 
	C179.341400,415.881012 179.053040,415.239899 178.931992,414.157654 
	C171.464035,407.769287 164.109970,401.606873 156.528214,395.738617 
	C146.637604,388.083313 144.368866,377.822418 150.780258,368.406647 
	C156.015625,360.717987 167.327560,358.038330 175.000793,363.517426 
	C184.423401,370.245636 193.334290,377.697449 202.382812,384.940918 
	C215.828415,395.704346 229.256058,406.492401 242.527176,417.468475 
	C244.020630,418.703674 247.862320,419.358368 245.337341,423.023529 
z"/>
<path fill="#FCFBFB" opacity="1.000000" stroke="none" 
	d="
M110.613274,407.343781 
	C114.922562,395.464081 118.974548,383.964325 123.336472,371.584991 
	C128.058701,383.142487 132.487076,393.866669 136.802170,404.636200 
	C137.687256,406.845154 138.409332,408.770905 141.652039,407.164795 
	C142.005798,407.826996 142.006851,408.519287 142.001587,409.557678 
	C139.243362,411.956055 135.102676,411.309235 132.571930,414.740601 
	C125.501198,415.828247 118.819038,415.765137 111.712021,414.783691 
	C110.152229,413.791351 109.906891,412.571777 109.721878,410.854004 
	C109.730202,409.454041 109.888161,408.551361 110.613274,407.343781 
z"/>
<path fill="#FCD01C" opacity="1.000000" stroke="none" 
	d="
M110.766792,413.550537 
	C118.141365,413.845886 125.081985,413.889740 132.482697,413.863678 
	C135.830856,412.075684 138.840668,412.298645 142.264893,413.512543 
	C154.424149,413.835022 166.213547,413.877136 178.461182,413.860046 
	C179.349304,414.292542 179.779190,414.784241 180.285858,415.606506 
	C180.288574,417.039490 179.547836,417.578918 178.188385,418.105560 
	C172.929962,418.823669 168.102524,418.498657 163.286072,418.507324 
	C140.334549,418.548615 117.382912,418.522186 94.431313,418.529419 
	C91.771957,418.530273 89.105133,418.460907 86.494324,419.132477 
	C80.239182,420.741516 75.794373,425.983002 75.679237,431.894257 
	C75.555077,438.269135 80.092361,444.165314 86.431198,445.854370 
	C89.036629,446.548615 91.706696,446.469971 94.366295,446.470703 
	C119.646317,446.477722 144.926346,446.470428 170.206360,446.479736 
	C172.532806,446.480591 174.864136,446.374084 177.651672,446.758942 
	C179.428955,447.283203 180.522903,447.892548 180.041992,449.947205 
	C147.171555,450.635986 114.594070,450.466248 81.580856,450.194275 
	C80.544922,448.214020 78.780434,447.723663 77.545074,446.674133 
	C71.693520,441.702606 69.449806,433.726532 71.920555,426.420319 
	C74.319473,419.326447 81.259712,414.182465 88.825638,413.986206 
	C92.800468,413.883118 96.778915,413.919128 101.199181,413.847198 
	C104.455788,412.190643 107.354652,412.059753 110.766792,413.550537 
z"/>
<path fill="#CDCDCD" opacity="1.000000" stroke="none" 
	d="
M126.154678,355.134338 
	C123.136169,354.962830 120.808487,353.881073 118.411316,352.135040 
	C118.647079,351.154663 119.354683,350.244751 119.774010,349.217194 
	C120.222847,348.117340 120.164803,346.946289 119.239738,346.000916 
	C118.271393,345.011261 117.413628,345.870361 116.561943,346.206146 
	C111.172302,348.331085 105.456978,348.971649 99.396523,349.875549 
	C98.149063,348.913727 98.018272,347.888519 98.723625,346.429840 
	C101.646935,344.011597 104.987511,343.547272 108.075584,342.533264 
	C113.144310,340.868774 117.694382,338.724854 121.815033,335.030518 
	C129.427963,328.205231 142.011551,333.143494 143.979202,343.299286 
	C144.456589,345.763214 143.324997,347.442657 141.531219,348.852509 
	C139.071411,350.785797 136.593369,352.695953 133.959381,354.935364 
	C133.411285,355.192078 133.026932,355.129425 132.350433,355.058167 
	C130.193710,354.670807 128.328613,354.224487 126.154678,355.134338 
z"/>
<path fill="#FCCC08" opacity="1.000000" stroke="none" 
	d="
M80.796402,329.763214 
	C80.361931,328.270691 80.031548,326.594574 80.190598,324.966248 
	C80.503563,321.761993 79.803345,319.458466 76.235405,318.725189 
	C75.366371,318.546570 74.152641,318.131104 74.175308,316.888000 
	C74.197472,315.672516 75.368172,315.417847 76.260963,315.074310 
	C81.070488,313.223785 85.907150,311.443329 90.706337,309.566803 
	C91.888382,309.104645 92.883667,309.195740 94.045311,309.658844 
	C98.676216,311.504913 103.346085,313.253662 108.009537,315.017212 
	C108.950104,315.372894 110.094055,315.651276 110.270844,316.720947 
	C110.477493,317.971283 109.230423,318.438446 108.350410,318.637665 
	C104.701187,319.463867 104.142807,322.040375 104.633057,325.091034 
	C105.378693,329.730865 103.085472,331.670624 98.853577,332.536469 
	C93.662781,333.598511 88.610985,333.412109 83.187302,331.732483 
	C81.762688,328.376099 82.900620,325.175964 82.533142,322.493042 
	C81.858177,324.417145 83.540840,327.475677 80.796402,329.763214 
z"/>
<path fill="#353446" opacity="1.000000" stroke="none" 
	d="
M402.372955,199.093231 
	C398.805481,204.404556 398.222107,210.826584 393.625549,215.636261 
	C391.355286,214.328094 388.906097,212.543945 386.492065,210.146820 
	C385.298798,209.659561 384.976929,208.841537 384.769592,207.795441 
	C384.938751,207.522263 384.926331,207.452240 384.924438,207.416718 
	C383.950012,204.579391 385.477386,203.710251 387.882782,202.897125 
	C391.487915,201.678436 392.192505,198.652817 393.761810,195.254303 
	C396.278687,189.803741 395.163605,182.832214 400.056793,178.751572 
	C402.578552,176.648544 404.385345,172.100998 409.394867,174.526794 
	C416.676483,178.052826 418.834595,181.161224 418.137451,188.049149 
	C418.025543,189.155029 417.916199,190.897141 418.531281,191.342102 
	C424.575378,195.714508 422.072662,200.767624 419.850830,206.246429 
	C416.217896,204.714355 414.904449,200.864624 412.165344,197.762924 
	C410.299591,195.787125 411.019714,193.735062 411.117645,191.803070 
	C411.339203,187.431412 409.188416,184.242661 406.199188,181.376389 
	C404.831879,180.065292 403.860107,180.337662 403.096466,181.839874 
	C401.352081,185.271347 399.623108,188.709473 401.863586,192.638260 
	C402.954956,194.552048 403.677399,196.579803 402.372955,199.093231 
z"/>
<path fill="#FEB9B8" opacity="1.000000" stroke="none" 
	d="
M193.063934,102.997467 
	C194.375793,103.905006 195.316101,104.831886 196.206512,105.804451 
	C201.093750,111.142578 201.089554,111.146423 195.379700,115.791641 
	C190.210983,121.994621 183.076401,121.796074 176.407745,122.280991 
	C169.470490,122.785446 162.543411,123.385559 155.620056,124.023087 
	C152.303711,124.328468 149.673904,123.706940 148.376083,119.785614 
	C149.668686,114.317093 150.711060,113.635307 157.069366,113.925774 
	C164.167770,112.543312 170.825363,111.129204 177.753937,109.479767 
	C183.372070,108.274353 187.551300,104.548553 193.063934,102.997467 
z"/>
<path fill="#EFEFEF" opacity="1.000000" stroke="none" 
	d="
M180.184265,191.232269 
	C183.669540,189.692932 183.801971,187.634903 181.961243,184.440491 
	C179.341263,179.893738 177.187973,175.078079 174.431763,169.570969 
	C179.555862,170.385788 183.880051,171.073410 188.577545,171.891449 
	C191.521942,174.443954 194.184097,176.581558 198.002686,176.727432 
	C200.747055,176.832260 202.271561,178.547363 202.300262,181.272446 
	C202.356049,186.568771 203.096146,191.895828 201.511963,197.507416 
	C193.464859,198.491272 186.919113,195.022842 180.184265,191.232269 
z"/>
<path fill="#353446" opacity="1.000000" stroke="none" 
	d="
M201.306671,63.160553 
	C198.881485,62.093285 196.397964,61.433403 196.899796,58.307076 
	C197.389359,55.257244 199.799240,54.018829 202.449829,53.377651 
	C204.185257,52.957851 206.259048,53.449577 207.777969,52.707493 
	C213.853348,49.739265 218.282700,53.233273 221.891586,56.860455 
	C225.780151,60.768719 226.038391,66.263641 223.771393,71.294197 
	C221.517990,76.294518 217.329041,78.660156 211.288757,78.094193 
	C210.247330,76.732048 210.736053,75.470924 211.105118,74.239883 
	C212.083252,70.977158 211.215652,68.834366 207.673721,68.074928 
	C204.929642,67.486572 203.473022,65.119301 201.306671,63.160553 
z"/>
<path fill="#353446" opacity="1.000000" stroke="none" 
	d="
M124.550575,328.694946 
	C118.814995,323.849670 119.698837,317.096954 126.424606,313.800018 
	C127.760910,313.144958 128.631500,312.659973 129.249664,310.959503 
	C131.234985,305.498260 136.784409,304.445465 141.252686,308.446075 
	C144.547546,311.396027 145.690598,315.377350 145.974426,319.613770 
	C146.132233,321.969391 146.484070,323.794006 148.757843,325.383392 
	C151.254135,327.128235 151.997406,330.026276 149.862854,332.815735 
	C148.023895,335.218964 145.385620,335.926117 142.752136,334.699432 
	C139.736008,333.294556 139.273621,330.439575 140.083481,327.447083 
	C140.378571,326.356720 141.239182,325.432007 141.651474,324.358612 
	C143.534363,319.456604 140.992432,315.602570 135.223816,315.152100 
	C136.723679,317.413849 138.258987,319.430023 138.050125,322.155823 
	C137.857574,324.668518 137.995712,327.215240 134.450317,327.999817 
	C132.799988,326.614716 136.626358,323.061218 131.672745,323.137390 
	C125.286934,323.235596 125.073883,323.112885 124.550575,328.694946 
z"/>
<path fill="#46445C" opacity="1.000000" stroke="none" 
	d="
M201.628067,197.858551 
	C201.218979,192.381836 201.033310,186.891617 201.205780,181.412674 
	C201.295502,178.562393 200.362656,177.586166 197.544678,177.814743 
	C193.603226,178.134445 190.217606,177.210999 188.992706,172.385834 
	C196.088913,172.207932 203.168365,172.013153 210.135452,170.061798 
	C213.266891,169.184708 216.108047,168.122025 218.311539,165.196930 
	C219.052750,165.670227 219.410873,166.447647 220.007950,166.928192 
	C222.171036,168.669113 223.043915,170.836777 222.223511,173.493164 
	C221.332123,176.379349 219.093567,177.556931 216.229233,177.849060 
	C213.642532,178.112869 210.202972,176.646225 208.660233,178.512741 
	C206.868683,180.680313 208.153763,184.212906 208.039200,187.148285 
	C207.936157,189.788467 208.026993,192.436218 208.084259,195.547272 
	C206.387131,197.616333 204.149002,197.584061 201.628067,197.858551 
z"/>
<path fill="#353446" opacity="1.000000" stroke="none" 
	d="
M312.377411,181.467682 
	C308.884399,179.482986 311.142944,176.213058 310.081360,173.824493 
	C308.652985,170.610672 310.484344,169.035690 312.817474,167.032700 
	C319.832397,161.010315 328.537140,161.774490 333.269897,169.308502 
	C334.266693,170.895294 335.903412,172.801208 332.378906,174.071625 
	C328.896912,174.390244 325.734802,174.579651 324.124817,178.030823 
	C323.851562,178.616638 323.083282,179.436462 322.658813,179.240509 
	C318.652496,177.390976 316.112610,181.356873 312.377411,181.467682 
z"/>
<path fill="#353446" opacity="1.000000" stroke="none" 
	d="
M286.602783,320.833923 
	C289.076019,325.833588 290.476166,331.132721 295.770325,333.746857 
	C297.219421,334.462372 297.398743,335.822754 296.585541,337.142944 
	C295.805145,338.409821 294.577332,338.965424 293.170227,338.221588 
	C286.871277,334.891907 280.114563,332.152039 274.496643,327.909943 
	C270.911713,325.202972 274.775543,322.384033 277.554138,320.272583 
	C280.687561,320.673584 283.525513,320.477142 286.602783,320.833923 
z"/>
<path fill="#353446" opacity="1.000000" stroke="none" 
	d="
M324.585815,326.702393 
	C328.897430,330.074799 332.658112,333.697479 338.297852,333.706818 
	C339.780029,333.709290 340.877380,334.397644 340.846649,336.106262 
	C340.814362,337.902008 339.808044,338.943481 338.076385,338.961029 
	C331.095276,339.031738 324.028290,339.665741 317.162079,338.780487 
	C312.775299,338.214905 314.642456,334.054810 315.680298,330.870270 
	C318.976715,329.774567 321.290894,327.476379 324.585815,326.702393 
z"/>
<path fill="#353446" opacity="1.000000" stroke="none" 
	d="
M101.595062,52.885437 
	C108.909569,54.082836 112.478966,56.816532 112.873138,61.595638 
	C110.726616,62.860622 108.559174,62.091381 106.459457,62.419468 
	C103.550301,62.874031 101.276894,64.270569 99.484085,66.596680 
	C98.213036,68.245811 97.107574,70.319153 94.049500,69.399948 
	C91.468559,65.039749 90.827667,60.729610 93.058144,55.902122 
	C95.597221,53.800552 98.342690,53.203979 101.595062,52.885437 
z"/>
<path fill="#EFEFEF" opacity="1.000000" stroke="none" 
	d="
M131.459656,172.007996 
	C130.364655,168.258194 126.627266,166.384872 125.466446,162.862427 
	C126.573906,161.554657 128.201706,162.011337 129.545029,161.709473 
	C140.013672,159.357056 142.719437,161.126770 145.987274,172.615967 
	C141.408218,171.418457 136.636612,172.133545 131.459656,172.007996 
z"/>
<path fill="#E5DCB8" opacity="1.000000" stroke="none" 
	d="
M80.668335,450.005981 
	C113.897118,450.021027 146.649231,450.080383 179.889954,450.071411 
	C181.779343,448.502075 183.660690,448.474915 185.481400,448.457336 
	C196.142990,448.354248 206.805084,448.381195 217.467026,448.435150 
	C219.163422,448.443756 220.771713,448.800079 222.651703,449.917206 
	C223.028168,450.236511 222.999176,450.479858 222.987091,450.598969 
	C207.665680,450.836853 192.356354,451.053650 177.047012,451.055267 
	C137.595474,451.059448 98.143944,450.968414 58.692410,450.915588 
	C57.883453,450.914490 57.074497,450.915436 56.257088,450.050323 
	C64.235275,450.050323 72.213463,450.050323 80.668335,450.005981 
z"/>
<path fill="#353446" opacity="1.000000" stroke="none" 
	d="
M433.715942,324.774902 
	C438.816895,329.495483 438.587494,330.911255 432.672943,333.376343 
	C428.545135,335.096741 424.404480,336.786499 420.282928,338.521576 
	C418.795044,339.147919 417.359100,339.514771 416.385223,337.802460 
	C415.305725,335.904572 416.707550,334.945038 418.094971,334.397308 
	C422.228302,332.765472 423.417633,328.704285 425.890015,325.258606 
	C428.453888,323.704773 430.946228,324.876404 433.715942,324.774902 
z"/>
<path fill="#353446" opacity="1.000000" stroke="none" 
	d="
M410.888733,331.659332 
	C414.110168,337.538330 413.314301,339.066711 407.408539,339.084015 
	C402.751373,339.097687 398.094177,339.085907 393.436981,339.084290 
	C391.901978,339.083771 390.316803,339.102448 390.056091,337.050903 
	C389.776459,334.850800 391.523529,334.515411 392.944550,334.523895 
	C397.395630,334.550415 400.095337,331.376892 403.657532,329.038452 
	C406.596100,328.665863 408.348511,330.673828 410.888733,331.659332 
z"/>
<path fill="#F6B5B6" opacity="1.000000" stroke="none" 
	d="
M312.049622,181.623886 
	C313.987061,181.292114 314.979797,180.010422 315.963745,178.617340 
	C316.751770,177.501663 318.387909,176.079086 319.196747,176.799637 
	C323.084900,180.263367 323.608612,175.914749 325.269684,174.413986 
	C327.245880,172.628601 329.134033,171.413605 331.720642,174.043884 
	C331.400482,180.921249 329.014893,183.731644 322.445068,185.030457 
	C320.838959,186.260864 319.131287,186.322189 317.301239,186.987030 
	C315.216797,186.414062 313.462311,185.736481 311.355072,185.025299 
	C311.342560,183.977875 311.682800,182.964035 312.049622,181.623886 
z"/>
<path fill="#F2F2F2" opacity="1.000000" stroke="none" 
	d="
M364.183594,317.933044 
	C365.785553,316.698761 367.268585,316.847443 368.676971,317.397003 
	C371.542816,318.515289 372.874603,317.960297 373.111786,314.548920 
	C373.318604,311.574585 378.187347,309.301025 381.051666,310.358551 
	C381.955170,310.692108 382.936737,310.871857 383.898285,310.974365 
	C384.865997,311.077576 385.853241,310.997101 386.884796,310.997101 
	C385.029053,318.674255 383.184692,320.370148 375.649109,319.875793 
	C372.289551,319.655396 369.381866,321.431274 366.096161,321.033508 
	C364.262451,320.811584 362.509705,320.853333 364.183594,317.933044 
z"/>
<path fill="#F6B5B6" opacity="1.000000" stroke="none" 
	d="
M201.063049,63.337700 
	C204.965469,63.512417 207.618652,66.591873 211.078262,68.176071 
	C214.652573,69.812798 212.696548,74.180908 210.989182,77.686279 
	C203.246857,76.259567 200.805969,72.712173 201.063049,63.337700 
z"/>
<path fill="#F6B5B6" opacity="1.000000" stroke="none" 
	d="
M124.629646,329.176727 
	C124.099731,328.054810 123.925934,327.079407 123.549217,326.189941 
	C122.242188,323.103790 122.801964,321.507904 126.554321,321.967834 
	C128.178085,322.166870 129.882858,321.789124 131.484039,322.063354 
	C132.967041,322.317352 134.923279,320.685760 135.788925,322.414917 
	C136.626617,324.088196 135.780411,325.949432 134.165771,327.605988 
	C131.541107,331.891632 128.067078,329.652069 124.629646,329.176727 
z"/>
<path fill="#46445C" opacity="1.000000" stroke="none" 
	d="
M239.998550,140.618668 
	C235.443069,140.931778 230.957993,140.886963 225.958710,140.808380 
	C226.415741,138.840408 225.724319,136.823792 225.788025,134.414246 
	C228.468903,131.936539 231.298981,132.273285 234.601868,133.547577 
	C238.039291,134.909729 239.095703,137.552719 239.998550,140.618668 
z"/>
<path fill="#A1646D" opacity="1.000000" stroke="none" 
	d="
M433.937256,324.582428 
	C431.683472,326.665375 429.263733,326.213104 426.453552,325.017639 
	C425.047791,322.818573 424.018829,320.665588 422.956055,318.141846 
	C424.323486,315.575958 426.954346,315.301910 429.216705,313.896973 
	C430.964050,317.311005 432.389069,320.776581 433.937256,324.582428 
z"/>
<path fill="#FEB9B8" opacity="1.000000" stroke="none" 
	d="
M347.893250,216.913208 
	C351.558960,217.107819 354.657166,217.521194 352.992218,222.598083 
	C352.765076,223.362778 352.524109,223.744873 351.892517,224.051971 
	C348.983093,224.335663 346.412506,224.662323 343.435822,224.993134 
	C341.074768,221.879013 341.504517,219.256927 344.981995,217.078232 
	C346.066559,216.653717 346.831787,216.660889 347.893250,216.913208 
z"/>
<path fill="#A1646D" opacity="1.000000" stroke="none" 
	d="
M377.149475,235.699249 
	C377.977722,233.885559 379.164154,232.844757 380.867859,231.858521 
	C381.216461,231.750458 381.549500,231.840469 381.617188,231.858429 
	C384.092682,230.413864 386.324463,230.862885 388.685242,232.887665 
	C388.848389,234.834229 388.773163,236.392334 388.620544,238.331421 
	C387.912781,239.978745 386.811523,239.482529 385.486938,239.259888 
	C384.026825,239.063843 382.910431,239.044815 381.375000,239.025848 
	C380.446869,238.863647 379.937714,238.701370 379.236053,238.349075 
	C378.823273,237.879059 378.593597,237.607010 378.142151,237.180878 
	C377.929901,237.018738 377.998322,237.031326 377.978638,237.059998 
	C377.607697,236.780045 377.306061,236.428802 377.149475,235.699249 
z"/>
<path fill="#F6B5B6" opacity="1.000000" stroke="none" 
	d="
M324.911926,326.483887 
	C322.246460,328.333405 320.679077,332.070740 316.328857,330.701294 
	C315.975006,328.070435 316.006104,325.534485 316.013916,322.571381 
	C318.698212,322.097382 321.405762,322.050507 324.558289,322.073029 
	C324.975067,323.458557 324.946930,324.774689 324.911926,326.483887 
z"/>
<path fill="#F6B5B6" opacity="1.000000" stroke="none" 
	d="
M286.985229,320.791779 
	C283.956146,321.622925 281.027588,323.647003 278.035889,320.563965 
	C278.923737,318.011169 279.969208,315.811676 281.074005,313.250824 
	C283.610046,314.121033 286.086731,315.352570 288.795624,316.838226 
	C288.390350,318.226318 287.752869,319.360291 286.985229,320.791779 
z"/>
<path fill="#A1646D" opacity="1.000000" stroke="none" 
	d="
M411.196503,331.405945 
	C408.324890,332.686584 406.349884,331.248779 404.287598,329.057434 
	C403.864868,326.998871 403.760132,325.111481 403.597534,322.824036 
	C405.807861,322.342316 408.075989,322.260651 410.822998,322.251465 
	C411.264282,325.205963 411.226715,328.087921 411.196503,331.405945 
z"/>
<path fill="#FCD01C" opacity="1.000000" stroke="none" 
	d="
M348.194519,216.597931 
	C347.451660,217.776398 346.662231,217.754654 345.570923,217.034302 
	C347.967316,213.996780 348.979156,210.155991 350.824463,206.399673 
	C350.769623,202.127487 352.799805,199.178848 355.566345,196.196609 
	C357.135193,194.286301 357.410248,190.548218 361.076385,193.726044 
	C358.753143,193.661682 358.230438,195.608917 357.456726,197.192795 
	C354.357880,203.536407 351.287598,209.893997 348.194519,216.597931 
z"/>
<path fill="#FCD01C" opacity="1.000000" stroke="none" 
	d="
M376.890564,235.215424 
	C377.466522,235.780045 377.688141,236.196503 377.934357,236.850815 
	C368.714142,234.163956 360.499084,229.102768 351.787506,224.297821 
	C351.813477,223.699615 352.073273,223.390259 352.639038,223.011871 
	C360.188873,228.190475 368.729004,230.915787 376.890564,235.215424 
z"/>
<path fill="#FEB9B8" opacity="1.000000" stroke="none" 
	d="
M355.463440,195.957550 
	C354.317902,199.124268 352.803436,202.302902 351.074341,205.768784 
	C349.432220,205.445251 348.004761,204.834488 346.259796,204.103760 
	C348.857391,201.157486 349.759674,196.032578 355.463440,195.957550 
z"/>
<path fill="#F2F1ED" opacity="1.000000" stroke="none" 
	d="
M234.967712,133.472382 
	C232.267044,133.864578 229.516129,133.925354 226.301346,133.986237 
	C224.082458,131.301193 227.473694,130.514313 227.969070,128.306519 
	C230.567490,129.474411 233.385162,130.456055 234.967712,133.472382 
z"/>
<path fill="#423F58" opacity="1.000000" stroke="none" 
	d="
M142.625839,413.459045 
	C139.698303,413.857697 136.761871,413.922485 133.384125,413.890533 
	C134.004303,408.958252 138.025909,410.376190 141.574707,409.905334 
	C142.202484,410.977600 142.409714,412.051392 142.625839,413.459045 
z"/>
<path fill="#F2F2F2" opacity="1.000000" stroke="none" 
	d="
M354.742981,326.824066 
	C352.409912,324.688446 352.320862,322.637390 354.387451,320.705139 
	C355.108551,320.030914 354.747955,317.805878 356.481781,318.744904 
	C357.586639,319.343323 359.420685,320.378754 358.322083,322.196594 
	C357.330414,323.837494 358.593018,327.089172 354.742981,326.824066 
z"/>
<path fill="#353446" opacity="1.000000" stroke="none" 
	d="
M111.188019,413.431763 
	C108.331657,413.859924 105.462570,413.917786 102.118057,413.888855 
	C102.015457,411.081207 103.864792,410.229553 106.665146,410.036804 
	C108.004791,409.180939 109.055939,409.001984 110.508049,409.842773 
	C110.936401,411.110413 111.055847,412.085968 111.188019,413.431763 
z"/>
<path fill="#F2F2F2" opacity="1.000000" stroke="none" 
	d="
M370.073547,307.997986 
	C367.957397,307.510529 367.358826,309.130524 366.319916,310.032074 
	C365.282562,306.282532 366.457184,304.067017 370.220673,303.435242 
	C371.886810,303.155579 373.455750,303.645538 373.715149,305.296448 
	C374.065948,307.529266 372.246277,307.921906 370.073547,307.997986 
z"/>
<path fill="#F2F2F2" opacity="1.000000" stroke="none" 
	d="
M364.080994,297.060486 
	C367.150085,297.656281 367.198822,299.600037 366.795349,301.700287 
	C366.609009,302.670288 365.766357,302.914978 364.892456,302.916687 
	C363.190491,302.919952 362.011078,301.927765 361.427917,300.509125 
	C360.589233,298.468903 361.722107,297.416138 364.080994,297.060486 
z"/>
<path fill="#A1646D" opacity="1.000000" stroke="none" 
	d="
M373.623505,201.613403 
	C369.926819,201.322952 367.174255,199.213776 365.360046,195.627762 
	C369.565613,195.432709 371.476868,198.449966 373.623505,201.613403 
z"/>
<path fill="#FEB9B8" opacity="1.000000" stroke="none" 
	d="
M98.592606,346.077728 
	C98.973831,347.090118 98.983589,348.086548 98.988129,349.453491 
	C98.661385,349.860657 98.333374,349.957672 98.019447,349.923889 
	C96.368240,349.746063 94.320869,350.898926 93.256561,348.762634 
	C92.958267,348.163818 93.082672,347.087433 93.437958,346.477570 
	C94.768150,344.194244 96.612885,346.201904 98.592606,346.077728 
z"/>
<path fill="#E5DCB8" opacity="1.000000" stroke="none" 
	d="
M227.493439,450.788422 
	C227.032501,450.714691 227.026993,450.489197 227.030426,450.379272 
	C234.604599,450.269379 242.175323,450.269379 249.746048,450.269379 
	C249.749344,450.466980 249.752625,450.664551 249.755920,450.862152 
	C242.488724,450.862152 235.221542,450.862152 227.493439,450.788422 
z"/>
<path fill="#F2F2F2" opacity="1.000000" stroke="none" 
	d="
M362.223572,307.216614 
	C363.751984,307.311218 364.116150,308.275238 364.518402,309.144501 
	C365.009430,310.205597 365.271637,311.343353 364.439606,312.349396 
	C363.859772,313.050537 362.960358,313.077484 362.196655,312.778137 
	C360.832672,312.243469 360.172546,311.017181 360.372589,309.682983 
	C360.501221,308.824890 361.339905,308.073273 362.223572,307.216614 
z"/>
<path fill="#524F60" opacity="1.000000" stroke="none" 
	d="
M80.538071,330.107880 
	C83.028114,327.246307 81.662590,323.682770 82.761421,320.617584 
	C82.929428,324.093292 83.097435,327.569000 83.032623,331.317017 
	C81.864014,331.501526 81.053055,331.202728 80.538071,330.107880 
z"/>
<path fill="#E6B2AD" opacity="1.000000" stroke="none" 
	d="
M317.189178,187.350037 
	C317.345520,184.227097 319.581085,185.203705 321.658081,185.027466 
	C322.008881,186.062134 321.954468,187.086273 321.887665,188.492615 
	C320.147644,189.293243 318.786011,188.420364 317.189178,187.350037 
z"/>
<path fill="#FEB9B8" opacity="1.000000" stroke="none" 
	d="
M110.833664,409.738739 
	C109.801720,410.130798 108.786469,410.126709 107.399872,410.037170 
	C107.009529,408.932953 106.990540,407.914154 106.967667,406.513214 
	C108.042892,406.394012 109.122002,406.656952 110.535843,406.941833 
	C110.863838,407.756744 110.857101,408.549683 110.833664,409.738739 
z"/>
<path fill="#46445C" opacity="1.000000" stroke="none" 
	d="
M421.528290,210.173859 
	C421.093689,209.639893 420.952637,209.148254 420.927429,208.289368 
	C423.457642,207.475632 424.670410,208.777893 425.488342,210.926880 
	C423.936157,211.885239 422.995270,210.428436 421.528290,210.173859 
z"/>
<path fill="#FCD01C" opacity="1.000000" stroke="none" 
	d="
M377.915833,237.333450 
	C378.214600,237.236862 378.499329,237.455002 378.913757,237.916092 
	C378.662933,237.988754 378.282349,237.818451 377.915833,237.333450 
z"/>
<path fill="#46445C" opacity="1.000000" stroke="none" 
	d="
M421.064331,207.626282 
	C420.700287,207.758026 420.322876,207.541885 419.889923,206.963745 
	C420.239929,206.827286 420.645447,207.052826 421.064331,207.626282 
z"/>
<path fill="#A1646D" opacity="1.000000" stroke="none" 
	d="
M157.377838,113.607224 
	C154.909363,115.678177 150.394714,113.609871 149.081406,118.478226 
	C143.991989,120.304756 142.808090,123.886467 143.377075,128.583359 
	C143.572067,130.193100 143.388901,131.867950 142.391205,133.739304 
	C141.845886,134.136536 141.562225,134.192688 140.924667,133.992981 
	C138.778076,130.331879 139.619415,126.648506 139.520645,123.084175 
	C139.345093,116.750893 139.238480,116.637451 132.742249,116.482071 
	C129.338226,116.400650 125.820595,117.160690 122.318344,115.076607 
	C122.663094,112.065018 123.414085,109.470543 125.472527,107.143829 
	C131.925262,108.062294 138.102661,109.074738 144.248169,110.253563 
	C147.006210,110.782616 149.646988,111.522423 152.520218,110.653893 
	C154.735992,109.984100 156.296082,111.244972 157.377838,113.607224 
z"/>
<path fill="#A1646D" opacity="1.000000" stroke="none" 
	d="
M93.767334,69.600922 
	C95.710045,69.293800 96.886505,68.303741 98.004311,66.601715 
	C101.521492,61.246323 105.355446,59.996338 112.439590,61.782227 
	C113.249046,69.938866 111.564140,73.781273 106.796371,75.621353 
	C101.560532,77.642082 96.927818,75.615616 93.767334,69.600922 
z"/>
<path fill="#EFEFEF" opacity="1.000000" stroke="none" 
	d="
M177.506317,149.487915 
	C170.823669,149.825378 164.544083,150.150894 158.458817,151.975952 
	C157.372360,152.301804 155.877747,152.930069 155.432541,151.476639 
	C152.703018,142.565903 144.802505,143.348099 138.028381,142.019958 
	C137.062653,141.830597 136.048553,141.888000 134.631409,141.858505 
	C134.077972,141.628082 133.949982,141.370361 134.113434,140.793549 
	C136.816528,139.218506 139.437134,139.735550 142.397614,139.592773 
	C146.898712,139.420212 151.048599,140.179245 155.449860,138.625412 
	C156.143372,138.518509 156.426605,138.512039 157.122269,138.609558 
	C162.144562,140.507111 166.947159,139.320648 171.654266,139.597778 
	C175.087769,139.799911 178.540756,139.467590 182.379608,139.905182 
	C185.136871,140.953888 184.397293,142.626938 183.531799,144.043533 
	C182.147766,146.308838 180.401764,148.295578 177.506317,149.487915 
z"/>
<path fill="#E6B2AD" opacity="1.000000" stroke="none" 
	d="
M177.132568,149.904968 
	C179.342117,146.902451 182.338806,144.926819 183.914581,141.331177 
	C183.958847,140.370316 184.104340,139.771301 184.556610,138.939178 
	C185.128052,138.213791 185.573654,137.789612 186.169006,137.089966 
	C186.616730,136.535751 186.879837,136.224197 187.350800,135.685242 
	C188.103821,134.835892 188.639313,134.206818 189.248810,133.227844 
	C190.074707,132.039597 190.828415,131.251282 192.297409,130.975983 
	C193.935120,135.695694 190.185608,138.912415 188.753510,142.673843 
	C187.422531,146.169662 185.772491,149.827148 183.587463,153.465836 
	C179.681458,155.736542 178.039383,153.690628 177.132568,149.904968 
z"/>
<path fill="#423F58" opacity="1.000000" stroke="none" 
	d="
M100.972031,170.560272 
	C99.041252,170.996017 97.068222,171.053802 95.098839,171.172256 
	C91.969711,171.360489 89.457741,170.245041 88.364876,167.254501 
	C87.263077,164.239517 88.491356,161.798508 91.480339,160.001892 
	C97.802521,160.759293 98.354103,166.382751 100.972031,170.560272 
z"/>
<path fill="#524F60" opacity="1.000000" stroke="none" 
	d="
M133.878265,140.389801 
	C133.972733,140.981491 134.025803,141.160675 134.142426,141.612823 
	C131.118713,141.934265 128.031448,141.982712 124.488510,142.038589 
	C123.700218,141.557770 123.367607,141.069519 123.014450,140.273178 
	C123.375351,139.572662 123.820786,139.276215 124.721771,138.968185 
	C125.920242,138.732727 126.734230,138.715179 127.957085,138.676819 
	C130.278137,138.733643 132.270447,138.469452 133.878265,140.389801 
z"/>
<path fill="#F1F1F1" opacity="1.000000" stroke="none" 
	d="
M192.751495,130.592834 
	C191.801163,131.904846 190.971588,132.804245 189.995529,133.978241 
	C174.202713,136.173172 158.542999,135.969101 142.542786,134.182251 
	C142.217941,130.720230 142.540436,127.585747 142.161682,124.538437 
	C141.564163,119.731041 143.363052,117.910500 148.504135,118.816391 
	C150.124268,122.465790 152.241638,123.192368 156.191238,122.600365 
	C165.019485,121.277122 173.974091,120.394516 182.892746,120.242424 
	C187.519028,120.163528 190.537476,117.342293 194.748169,116.007095 
	C194.370804,120.717575 193.621521,125.448906 192.751495,130.592834 
z"/>
<path fill="#FCCC06" opacity="1.000000" stroke="none" 
	d="
M121.642456,114.769547 
	C127.213371,114.807610 132.371521,115.040993 137.521576,114.922508 
	C140.384232,114.856644 141.291260,115.880280 141.212128,118.673325 
	C141.075516,123.494774 141.262146,128.325378 141.488678,133.589600 
	C141.563995,134.340042 141.463806,134.653061 140.998596,135.297913 
	C130.986084,136.987320 121.346413,137.460648 111.454987,134.971237 
	C111.256004,129.128006 111.375610,123.688278 111.383957,118.248383 
	C111.387100,116.197701 111.638596,114.568901 114.684113,114.771759 
	C115.795517,114.492355 116.507828,114.513252 117.567673,114.629395 
	C119.018280,114.748161 120.122292,114.783005 121.642456,114.769547 
z"/>
<path fill="#E6E6E5" opacity="1.000000" stroke="none" 
	d="
M87.376678,141.783081 
	C83.832741,140.094727 80.304665,141.543076 76.514221,141.052704 
	C75.099518,136.122299 76.967712,134.610260 81.989258,134.954056 
	C89.258736,135.451752 96.587624,135.083359 103.891174,135.080460 
	C105.537300,135.079803 107.285927,134.723541 107.260414,137.381317 
	C107.235092,140.018082 105.497948,139.680344 103.841194,139.676727 
	C99.525497,139.667313 95.208122,139.600662 90.895088,139.706406 
	C89.650299,139.736938 87.616524,138.898834 87.376678,141.783081 
z"/>
<path fill="#A1646D" opacity="1.000000" stroke="none" 
	d="
M107.290100,131.998169 
	C107.532013,132.613693 107.668587,133.153061 107.555214,133.212036 
	C102.638107,135.770325 91.248474,133.129654 88.585312,128.778839 
	C87.612762,127.190010 87.542091,125.313110 89.391418,124.469009 
	C92.068977,123.246872 94.204994,118.859558 97.950378,122.458504 
	C101.069267,125.455452 104.034737,128.612061 107.290100,131.998169 
z"/>
<path fill="#353446" opacity="1.000000" stroke="none" 
	d="
M111.027206,134.952515 
	C120.802231,135.821411 130.468109,134.779388 140.578949,135.129883 
	C144.209854,135.559204 144.277100,137.570557 143.251678,140.286514 
	C140.247925,140.698730 137.535706,140.817307 134.371582,140.869080 
	C132.454239,139.236633 130.538345,140.232346 128.461777,139.896973 
	C127.256378,139.201340 126.399391,138.845840 125.165527,139.700348 
	C124.498161,139.899216 124.068626,139.921600 123.316498,139.954529 
	C119.815369,138.017426 116.324150,139.273361 112.986725,139.059311 
	C110.061417,138.871689 109.558319,137.725922 111.027206,134.952515 
z"/>
<path fill="#A1646D" opacity="1.000000" stroke="none" 
	d="
M118.646988,144.563354 
	C114.741707,150.204025 112.837791,149.654953 106.341034,140.965118 
	C109.646736,140.965118 112.539749,140.976456 115.432610,140.961395 
	C117.608475,140.950058 118.964333,141.756226 118.646988,144.563354 
z"/>
<path fill="#A1646D" opacity="1.000000" stroke="none" 
	d="
M117.728897,114.517967 
	C117.206505,114.777740 116.498734,114.842163 115.447250,114.812927 
	C115.808052,113.917709 116.649040,113.955666 117.728897,114.517967 
z"/>
<path fill="#A1646D" opacity="1.000000" stroke="none" 
	d="
M402.679749,199.369553 
	C402.061066,196.856735 402.085297,194.427322 400.140869,192.116867 
	C398.128296,189.725449 400.786438,180.907288 403.368073,179.009705 
	C404.809998,177.949844 405.426575,178.960480 406.225555,179.715561 
	C410.409973,183.670090 414.033264,187.828323 411.842651,194.278259 
	C411.596252,195.003708 411.880463,195.909363 411.933746,197.102814 
	C408.993439,198.086273 406.038025,198.698380 402.679749,199.369553 
z"/>
<path fill="#FCFBFB" opacity="1.000000" stroke="none" 
	d="
M389.350952,233.163544 
	C386.791565,232.845215 384.659485,232.414337 382.106140,231.929901 
	C382.520142,228.711029 383.355438,225.545685 384.206177,222.321915 
	C386.658386,223.057068 388.412994,224.804321 390.815186,224.911667 
	C394.797699,225.089615 392.398895,228.044159 392.799072,229.710617 
	C393.359833,232.045715 392.535400,233.521484 389.350952,233.163544 
z"/>
<path fill="#E5DCB8" opacity="1.000000" stroke="none" 
	d="
M385.318359,239.349701 
	C386.052460,238.972717 386.961639,238.862549 388.207031,238.732391 
	C389.332306,239.393799 391.169830,239.409073 390.647858,240.900864 
	C390.219269,242.125839 388.964569,241.349960 388.111359,240.979370 
	C387.211212,240.588394 386.363892,240.075928 385.318359,239.349701 
z"/>
<path fill="#FFFFFF" opacity="1.000000" stroke="none" 
	d="
M384.687042,207.832428 
	C385.301971,208.160339 385.665192,208.798416 386.112427,209.719421 
	C385.990082,210.308548 385.783752,210.614731 385.317017,211.026886 
	C384.718811,210.163254 383.959747,209.281189 384.687042,207.832428 
z"/>
<path fill="#F6B5B6" opacity="1.000000" stroke="none" 
	d="
M125.869675,355.533447 
	C127.479156,352.479279 129.427979,352.154175 131.884125,354.733917 
	C130.187302,356.647461 128.618439,360.450287 125.869675,355.533447 
z"/>
<path fill="#FFFFFF" opacity="1.000000" stroke="none" 
	d="
M222.927704,449.890686 
	C209.104507,450.163361 195.180832,450.090179 180.817871,450.010071 
	C180.291718,448.948090 179.814957,448.231873 178.357544,447.980103 
	C177.040222,446.969635 176.890488,445.790100 176.999634,444.190521 
	C177.191345,442.948425 177.422134,442.062408 177.170929,440.810181 
	C176.891296,439.321167 176.851135,438.168304 177.247742,436.691162 
	C177.157822,435.858521 178.746887,436.086884 177.604630,435.006165 
	C176.889603,433.634674 176.884399,432.483582 177.044785,430.983948 
	C177.269714,429.788727 177.441208,428.927795 177.171021,427.716064 
	C176.884354,426.237610 176.861938,425.090271 177.251007,423.614319 
	C177.147491,422.775116 178.852600,422.682831 177.455505,421.656372 
	C176.821991,420.093353 176.834946,418.870575 177.767426,417.403625 
	C178.629532,416.868744 179.243149,416.625977 180.109711,416.160156 
	C187.104431,418.941223 192.012619,424.423645 197.663681,428.879211 
	C206.185318,435.598053 214.452103,442.640137 222.927704,449.890686 
z"/>
<path fill="#F2F2F2" opacity="1.000000" stroke="none" 
	d="
M177.567322,422.794830 
	C178.007050,424.401031 178.006195,425.783813 178.004654,427.581482 
	C176.132492,429.610718 173.865677,428.961700 171.772781,428.965454 
	C145.304184,429.013153 118.835464,428.996643 92.366776,428.999512 
	C118.862450,429.004730 145.358124,428.997192 171.853806,429.014587 
	C173.673233,429.015778 175.521637,428.785980 177.651917,429.709229 
	C178.007217,431.383362 178.010468,432.763031 178.019897,434.556580 
	C176.311203,435.950348 174.439590,435.457062 172.649551,435.459290 
	C143.208496,435.496002 113.767372,435.481812 84.326271,435.493195 
	C115.267334,435.574554 146.208572,435.428711 177.587830,435.801270 
	C178.019165,437.409180 178.012268,438.788849 178.004669,440.582397 
	C176.132492,442.610718 173.865677,441.961700 171.772781,441.965454 
	C145.304184,442.013153 118.835464,441.996643 92.366776,441.999512 
	C118.862450,442.004730 145.358124,441.997192 171.853806,442.014587 
	C173.673233,442.015778 175.521637,441.785980 177.651917,442.709229 
	C178.005646,444.361115 178.007309,445.718567 178.012329,447.482727 
	C148.206665,447.940582 118.397202,448.097412 88.588882,447.975586 
	C80.130623,447.940979 73.810928,440.754425 73.885918,432.194000 
	C73.961639,423.549011 80.536705,416.986328 89.644875,416.959656 
	C118.791985,416.874359 147.939560,416.943848 177.551422,417.032532 
	C178.012863,418.464111 178.009857,419.816742 178.007385,421.575562 
	C176.288345,422.939545 174.419083,422.457703 172.627686,422.459869 
	C143.193909,422.495758 113.760063,422.481812 84.326241,422.493378 
	C115.259697,422.573029 146.193314,422.431061 177.567322,422.794830 
z"/>
<path fill="#423F58" opacity="1.000000" stroke="none" 
	d="
M143.411118,140.685928 
	C142.848297,138.824066 143.628525,136.798218 141.261566,135.397079 
	C141.153076,134.950027 141.255432,134.766190 141.511002,134.304688 
	C141.664200,134.027039 141.976685,134.023880 142.093307,133.919754 
	C157.790222,133.903946 173.370514,133.992264 189.399933,134.166718 
	C189.400009,134.777359 188.950989,135.301880 188.259155,135.917511 
	C187.754044,136.114334 187.491714,136.220032 186.807220,136.361038 
	C178.814758,136.555908 171.243134,136.357483 163.673447,136.474411 
	C161.257950,136.511719 158.657593,136.107864 156.563187,138.686401 
	C156.418945,141.098877 154.873947,140.807175 153.631607,140.816879 
	C150.375366,140.842285 147.118622,140.804382 143.411118,140.685928 
z"/>
<path fill="#F2F2F2" opacity="1.000000" stroke="none" 
	d="
M156.574432,139.053101 
	C155.321594,136.415543 155.776978,135.023361 158.996674,135.086853 
	C168.201385,135.268341 177.409729,135.265366 186.911560,135.657898 
	C187.277695,136.138535 187.348892,136.296188 187.274200,136.668427 
	C186.985092,137.940842 186.699478,138.893005 185.100250,139.277130 
	C175.907242,140.528198 167.054001,140.013443 157.794556,139.452209 
	C157.206497,139.169159 157.026764,139.131165 156.574432,139.053101 
z"/>
<path fill="#524F60" opacity="1.000000" stroke="none" 
	d="
M157.185974,139.579361 
	C166.201996,139.284042 175.017761,139.360931 184.288483,139.428497 
	C184.625732,139.854980 184.507996,140.290787 184.206284,140.869003 
	C176.481781,140.970764 168.940079,140.988388 161.401703,140.839142 
	C159.937256,140.810150 158.132156,141.795074 157.185974,139.579361 
z"/>
<path fill="#524F60" opacity="1.000000" stroke="none" 
	d="
M187.362427,136.854050 
	C187.128281,136.883011 187.098099,136.425934 187.152283,136.203400 
	C187.206482,135.980865 187.611801,135.981689 187.814087,135.995148 
	C188.010193,136.349609 187.870255,136.621765 187.362427,136.854050 
z"/>
<path fill="#423F58" opacity="1.000000" stroke="none" 
	d="
M125.319641,139.912888 
	C125.562675,137.956406 126.441231,137.200745 127.988342,139.568146 
	C127.283562,139.904694 126.497581,139.926819 125.319641,139.912888 
z"/>
<path fill="#E6E6E5" opacity="1.000000" stroke="none" 
	d="
M178.225342,429.855408 
	C146.902374,430.003662 115.800774,430.003662 84.699181,430.003662 
	C84.699554,429.336060 84.699936,428.668488 84.700310,428.000885 
	C115.488792,428.000885 146.277283,428.000885 177.534866,427.998596 
	C178.695633,428.425781 179.008331,428.953308 178.225342,429.855408 
z"/>
<path fill="#E6E6E5" opacity="1.000000" stroke="none" 
	d="
M178.225342,442.855408 
	C146.902374,443.003662 115.800774,443.003662 84.699181,443.003662 
	C84.699554,442.336060 84.699936,441.668488 84.700310,441.000885 
	C115.488792,441.000885 146.277283,441.000885 177.534866,440.998596 
	C178.695633,441.425781 179.008331,441.953308 178.225342,442.855408 
z"/>
<path fill="#E6E6E5" opacity="1.000000" stroke="none" 
	d="
M178.190918,435.930695 
	C147.079376,436.029541 116.132683,436.029541 85.185989,436.029541 
	C85.185020,435.682312 85.184052,435.335083 85.183083,434.987854 
	C115.816422,434.987854 146.449753,434.987854 177.554596,434.979156 
	C178.135971,435.257599 178.245880,435.544708 178.190918,435.930695 
z"/>
<path fill="#D0D0CF" opacity="1.000000" stroke="none" 
	d="
M178.166336,422.918762 
	C147.068710,423.018219 116.129509,423.018219 85.190308,423.018219 
	C85.189423,422.680786 85.188545,422.343323 85.187660,422.005890 
	C115.814812,422.005890 146.441956,422.005890 177.538513,421.993835 
	C178.113525,422.260956 178.219131,422.540100 178.166336,422.918762 
z"/>
</svg>